PathFileType  4	(X/Y/Z) C:\Users\antoi\Documents\MyRepositories\mobilecap\ResultsAnalysis
DataRate	CameraRate	NumFrames	NumMarkers	Units	OrigDataRate	OrigDataStartFrame	OrigNumFrames
100.0	100.0	4	51	mm	100.0	69	136
Frame#	Time	r_knee			r_shank_antsup			r_ankle			r_calc			r_5meta			r_toe			L_knee			L_shank_antsup			L_ankle			L_calc			L_5meta			L_toe			r_sh2			r_sh3			r_sh4			L_sh2			L_sh3			r_thigh1			r_thigh2			r_thigh3			r_thigh4			r_thigh5			L_thigh1			L_thigh2			L_thigh3			L_thigh4			r.ASIS			r.PSIS			L.ASIS			L.PSIS			C7			R_Shoulder			L_Shoulder			R_Sternum			L_Sternum			R_humerus			R_elbow_med			R_elbow_lat			R_forearm			R_wrist_radius			R_wrist_ulna			L_humerus			L_elbow_med			L_elbow_lat			L_forearm			L_wrist_radius			L_wrist_ulna			R_HJC			L_HJC			R_HJC_reg			L_HJC_reg			
		X1	Y1	Z1	X2	Y2	Z2	X3	Y3	Z3	X4	Y4	Z4	X5	Y5	Z5	X6	Y6	Z6	X7	Y7	Z7	X8	Y8	Z8	X9	Y9	Z9	X10	Y10	Z10	X11	Y11	Z11	X12	Y12	Z12	X13	Y13	Z13	X14	Y14	Z14	X15	Y15	Z15	X16	Y16	Z16	X17	Y17	Z17	X18	Y18	Z18	X19	Y19	Z19	X20	Y20	Z20	X21	Y21	Z21	X22	Y22	Z22	X23	Y23	Z23	X24	Y24	Z24	X25	Y25	Z25	X26	Y26	Z26	X27	Y27	Z27	X28	Y28	Z28	X29	Y29	Z29	X30	Y30	Z30	X31	Y31	Z31	X32	Y32	Z32	X33	Y33	Z33	X34	Y34	Z34	X35	Y35	Z35	X36	Y36	Z36	X37	Y37	Z37	X38	Y38	Z38	X39	Y39	Z39	X40	Y40	Z40	X41	Y41	Z41	X42	Y42	Z42	X43	Y43	Z43	X44	Y44	Z44	X45	Y45	Z45	X46	Y46	Z46	X47	Y47	Z47	X48	Y48	Z48	X49	Y49	Z49	X50	Y50	Z50	X51	Y51	Z51	

69	0.68000000	606.99513	509.65567	-126.80967	544.69598	391.66223	-137.26265	247.65872	223.59079	-175.33300	189.89638	247.98131	-235.70934	262.76969	66.81441	-126.58851	317.87420	60.45213	-189.12832	823.14050	535.27399	-460.76604	884.23832	439.71407	-435.57377	841.39042	90.75200	-423.83378	777.67336	65.27857	-373.83734	987.10147	34.56510	-440.70473	1013.74641	61.26447	-371.49910	468.40009	309.49677	-161.86372	487.15018	432.28894	-104.92529	410.32079	345.61546	-112.76659	806.04377	425.50811	-480.96068	846.52956	311.16488	-485.47835	750.69826	722.49155	-141.35219	736.97322	611.49787	-153.45016	693.02544	588.66758	-106.36040	656.03045	726.52841	-78.88745	641.63138	609.95478	-96.14481	812.59121	796.99893	-489.43040	865.26185	670.58782	-470.51141	711.96265	748.85870	-513.63301	765.61705	623.30291	-487.17822	752.88273	1006.88707	-157.58366	545.83390	1043.59549	-236.56285	747.72908	1024.86165	-422.01414	539.20980	1048.77163	-334.34293	597.92300	1542.34789	-298.46968	690.22597	1479.86250	-118.00378	654.90700	1486.88829	-482.26771	743.21060	1470.61312	-285.66649	737.41009	1465.99220	-333.05334	716.98314	1312.90837	-47.52478	652.82074	1084.69450	-75.55362	678.75093	1111.74589	-1.40526	804.23772	989.60713	-10.28561	864.69894	883.83648	-9.50381	839.23584	866.79840	20.95201	623.14442	1312.64572	-561.19470	522.78586	1116.94814	-501.63890	538.64075	1130.20858	-580.92452	607.57624	977.01811	-587.42128	603.44655	859.05330	-616.32488	565.15468	867.04513	-646.33522	671.08851	928.39192	-197.29466	669.78403	931.93214	-410.64874	682.91482	931.05252	-194.58938	671.10824	940.28749	-368.91435	
70	0.69000000	635.50398	508.21148	-125.83683	570.78998	392.47670	-136.33556	269.28482	234.62433	-175.16764	215.49091	264.25882	-236.52133	270.99089	77.32638	-127.69568	326.12977	65.84780	-188.99321	833.59914	535.68052	-461.70819	892.45402	438.64776	-436.52819	841.85804	90.88837	-423.32581	777.78558	65.62432	-373.74284	987.16834	34.64951	-440.72137	1013.96074	60.42770	-371.20413	491.54056	312.18470	-161.01032	514.52848	434.82385	-104.19180	434.96150	350.70270	-112.34368	813.86892	425.93769	-481.69422	851.85792	310.81514	-485.95194	772.04919	725.27699	-141.69636	762.40738	613.63900	-152.73253	718.90069	589.57693	-105.69889	677.38540	726.49002	-79.18117	666.85530	609.41638	-95.70009	825.83980	798.23818	-490.00729	877.75425	671.49746	-471.17502	725.32974	750.69647	-515.43202	777.92554	624.77139	-488.90128	766.61586	1008.89852	-159.89939	559.45226	1044.82600	-238.01458	761.13513	1027.70405	-424.32565	552.92612	1050.07179	-335.66799	611.74128	1544.10512	-300.98947	703.48812	1482.39706	-120.05453	669.93812	1488.53946	-484.28880	757.03394	1472.56056	-287.42466	751.43959	1467.74918	-334.77293	729.03574	1315.23834	-49.21464	663.75289	1087.57427	-79.13163	688.95789	1114.11755	-4.42011	812.95476	990.39521	-11.76053	872.00209	883.67162	-10.30640	846.11943	867.05916	19.98818	640.22980	1313.78616	-562.84788	540.68156	1117.64629	-503.36243	557.70412	1130.35443	-582.48694	628.80491	978.04985	-586.84299	627.06056	860.00284	-615.03359	588.71163	866.97745	-645.16285	685.46454	930.07764	-199.53170	683.63310	934.29914	-412.87503	696.76962	933.08954	-197.04649	685.12120	942.45888	-371.41273	
71	0.70000000	664.21159	507.20281	-125.02227	597.78664	393.48484	-135.88563	292.38677	245.40771	-175.11146	242.85181	279.78598	-237.35708	281.45680	88.77104	-128.86786	336.36049	72.22365	-188.77862	843.10130	535.93240	-462.52133	899.89127	437.58471	-437.40018	842.22686	90.98938	-422.99541	777.91576	65.90683	-373.73111	987.21355	34.67848	-440.76392	1014.10946	59.82599	-371.04196	515.46424	314.89967	-160.75749	542.89247	437.19960	-103.41768	460.89948	355.48449	-111.95041	821.05396	426.20764	-482.52817	856.80355	310.46917	-486.54309	793.29314	728.41955	-141.89493	787.63547	616.25421	-151.98770	744.87899	591.01247	-104.87756	698.61545	726.67543	-79.36434	692.11986	609.25006	-95.24118	838.54409	799.02026	-490.40556	889.23941	671.71167	-471.89163	738.02716	752.50268	-517.03667	788.97733	625.98692	-490.39086	779.85450	1010.93341	-161.94264	572.65847	1045.96146	-239.61012	774.60499	1030.27201	-426.26899	566.47943	1051.23221	-337.09743	625.45838	1545.90480	-303.40687	716.54077	1484.83884	-122.00951	684.96253	1490.17322	-486.16003	770.69925	1474.37101	-289.00315	765.33396	1469.40274	-336.30545	740.94719	1317.49870	-50.91233	674.58481	1090.41290	-82.48619	699.06040	1116.46232	-7.26145	821.55130	991.20795	-13.03845	879.18409	883.54886	-10.92353	852.85189	867.36355	19.19967	657.46754	1314.97929	-564.40217	558.75036	1118.32210	-505.15136	577.02632	1130.51703	-584.06968	650.25239	979.21855	-586.26009	651.19090	861.17872	-613.75956	612.79694	867.08883	-644.00113	699.40169	931.73572	-201.51546	697.48465	936.42296	-414.85069	710.19668	935.05124	-199.36423	699.15031	944.47727	-373.71853	
72	0.71000000	692.86269	506.83650	-124.32442	625.45716	394.74625	-135.87872	316.76148	255.72300	-175.26163	271.49897	294.11163	-238.38324	294.39795	100.57571	-130.08037	348.90819	79.31312	-188.52633	851.74420	536.09243	-463.19391	906.63160	436.56633	-438.07873	842.53835	91.09449	-422.78132	778.07719	66.17374	-373.76092	987.25137	34.65972	-440.81287	1014.24539	59.35932	-370.94537	540.12019	317.67777	-161.07630	571.96452	439.45122	-102.62132	487.87198	359.90587	-111.62165	827.69276	426.36827	-483.38651	861.45396	310.14561	-487.14575	814.34283	731.95868	-141.95612	812.45545	619.40158	-151.24836	770.74368	593.10904	-103.91000	719.61393	727.23568	-79.47503	717.20774	609.61622	-94.79543	850.71498	799.38897	-490.79437	899.73703	671.31492	-472.68054	750.01112	754.27930	-518.41706	798.84263	626.99403	-491.62099	792.65429	1012.99664	-163.60996	585.50993	1047.01542	-241.39034	788.25197	1032.47344	-427.70686	579.85609	1052.36494	-338.68023	639.04573	1547.75522	-305.71151	729.32906	1487.13912	-123.84090	699.94378	1491.77024	-487.88166	784.17098	1476.05113	-290.38804	779.07367	1470.98027	-337.63864	752.68225	1319.62922	-52.61488	685.27908	1093.16239	-85.54931	709.06481	1118.71354	-9.90001	830.05530	992.00272	-14.08889	886.29073	883.43785	-11.32974	859.48101	867.67235	18.60169	674.83975	1316.20045	-565.86157	576.99505	1118.94553	-507.01232	596.61440	1130.66702	-585.66805	671.94198	980.50570	-585.67303	675.81578	862.55772	-612.49722	637.39392	867.36414	-642.85349	712.86850	933.38729	-203.17050	711.40253	938.27110	-416.50100	723.36416	936.78678	-201.47316	713.24120	946.36561	-375.71841	
